<svg width="36" height="36" viewBox="0 0 36 36" fill="none" xmlns="http://www.w3.org/2000/svg">
<path fill-rule="evenodd" clip-rule="evenodd" d="M6 14.5121L16.3204 20.4706C16.4315 20.5347 16.548 20.5811 16.6667 20.6105V32.1667L6.73605 26.2897C6.27983 26.0197 6 25.529 6 24.9988V14.5121ZM30 14.3537V24.9988C30 25.529 29.7202 26.0197 29.2639 26.2897L19.3333 32.1667V20.5093C19.3575 20.4972 19.3815 20.4843 19.4052 20.4706L30 14.3537V14.3537Z" fill="#605BFF"/>
<path fill-rule="evenodd" clip-rule="evenodd" d="M6.32422 11.6201C6.45028 11.4609 6.60939 11.3263 6.79489 11.2275L17.2949 5.635C17.7357 5.40023 18.2644 5.40023 18.7052 5.635L29.2052 11.2275C29.3482 11.3037 29.4755 11.4011 29.5841 11.5146L18.072 18.1612C17.9963 18.2049 17.9265 18.2549 17.8629 18.3102C17.7993 18.2549 17.7295 18.2049 17.6538 18.1612L6.32422 11.6201Z" fill="#605BFF"/>
</svg>
