<svg width="24" height="24" viewBox="0 0 24 24" fill="none" xmlns="http://www.w3.org/2000/svg">
<path fill-rule="evenodd" clip-rule="evenodd" d="M7.00699 6.41047L6.3938 3.78252C6.2692 3.2485 5.79311 2.87071 5.24475 2.87071H3.17989C2.52824 2.87071 1.99998 3.39898 1.99998 4.05063C1.99998 4.70228 2.52824 5.23055 3.17989 5.23055H4.30845L5.85534 11.8439L6.55281 16.0287C6.64455 16.5792 7.16906 16.948 7.71809 16.8482L19.0869 14.7811C19.4615 14.713 19.765 14.4381 19.8696 14.072L21.6944 7.68519C21.8769 7.04637 21.3972 6.41047 20.7329 6.41047H7.00699Z" fill="#70708C"/>
<path fill-rule="evenodd" clip-rule="evenodd" d="M16 19.5C16 20.3284 16.6716 21 17.5 21C18.3284 21 19 20.3284 19 19.5C19 18.6716 18.3284 18 17.5 18C16.6716 18 16 18.6716 16 19.5ZM7 19.5C7 20.3284 7.67157 21 8.5 21C9.32843 21 10 20.3284 10 19.5C10 18.6716 9.32843 18 8.5 18C7.67157 18 7 18.6716 7 19.5Z" fill="#70708C"/>
</svg>
