<svg width="30" height="19" viewBox="0 0 30 19" fill="none" xmlns="http://www.w3.org/2000/svg">
<path fill-rule="evenodd" clip-rule="evenodd" d="M0.211405 0.170977L0.0200375 0.341953L0.00374845 7.97859C-0.00521639 12.1788 0.00245939 15.6768 0.0207992 15.752C0.0390804 15.8273 0.122752 15.9526 0.206717 16.0304C0.355252 16.168 0.385545 16.1719 1.32152 16.1719C2.57449 16.1719 2.61099 16.1531 2.77453 15.4246C3.13341 13.8258 4.47064 12.7734 6.14308 12.7734C7.80409 12.7734 9.15919 13.8442 9.51345 15.4365C9.58071 15.7388 9.65665 15.9195 9.75983 16.0227L9.90907 16.1719H13.9192H17.9294L18.1007 16.0006L18.272 15.8293L18.2707 8.1051C18.2695 0.87498 18.2629 0.37289 18.1681 0.255879C18.1124 0.187148 18.0093 0.101426 17.9389 0.065449C17.8464 0.0181053 15.4021 0 9.10687 0H0.402772L0.211405 0.170977ZM19.9292 3.32232C19.8578 3.33615 19.7326 3.42686 19.6509 3.52395L19.5024 3.70037V9.75586V15.8113L19.6827 15.9916C19.8584 16.1672 19.8771 16.1719 20.4119 16.1719C21.1314 16.1719 21.2168 16.1056 21.3791 15.4213C21.6438 14.3051 22.2222 13.5654 23.1797 13.1187C24.4891 12.5078 26.074 12.7204 27.0709 13.6406C27.6553 14.1801 28.015 14.8396 28.1445 15.6094C28.1673 15.7451 28.2508 15.9058 28.3499 16.0049C28.5098 16.1648 28.5399 16.1718 29.0634 16.1706C29.6435 16.1692 29.7839 16.1151 29.9253 15.8388C30.0113 15.6706 30.0179 9.65244 29.9322 9.49236C29.7812 9.21012 24.9236 3.4752 24.7582 3.38379C24.5897 3.29068 24.3646 3.28201 22.3159 3.28922C21.0746 3.29361 20.0007 3.3085 19.9292 3.32232ZM24.2395 4.60617C24.3251 4.65809 24.8433 5.23998 25.3911 5.89928C27.0609 7.90875 27.0024 7.82912 27.0024 8.09437C27.0024 8.27596 26.9635 8.36824 26.8312 8.5006L26.6599 8.67187H23.8731H21.0863L20.895 8.5009L20.7036 8.32992V6.5918V4.85367L20.895 4.68269L21.0863 4.51172H22.5851C23.8602 4.51172 24.1072 4.52584 24.2395 4.60617ZM5.64896 13.9489C5.2207 14.0205 4.6606 14.3302 4.33353 14.676C3.84011 15.1976 3.61787 15.7445 3.61834 16.4355C3.61921 17.7145 4.48177 18.7236 5.76134 18.9428C6.73786 19.1101 7.84312 18.5822 8.33695 17.7128C8.60044 17.249 8.67796 16.9062 8.6523 16.319C8.63114 15.8361 8.60431 15.7262 8.41259 15.3383C8.0588 14.6225 7.44105 14.1327 6.69175 13.974C6.25042 13.8804 6.08197 13.8764 5.64896 13.9489ZM24.2549 13.9501C23.8052 14.0384 23.2649 14.3323 22.941 14.6647C21.7922 15.8441 22.0345 17.7766 23.4364 18.6157C24.9776 19.538 26.9277 18.6235 27.2435 16.8304C27.4276 15.7856 26.8203 14.6205 25.8569 14.1697C25.3175 13.9173 24.7901 13.845 24.2549 13.9501ZM6.52546 15.8212C6.77495 15.9754 6.92771 16.2951 6.87814 16.5593C6.85657 16.6741 6.75345 16.8466 6.63638 16.9638C6.45872 17.1414 6.39474 17.168 6.14531 17.168C5.9015 17.168 5.82779 17.1391 5.65417 16.9753C5.0046 16.3627 5.7672 15.3526 6.52546 15.8212ZM25.0744 15.7939C25.3075 15.9144 25.4785 16.2073 25.4788 16.4864C25.4789 16.6717 25.4375 16.7545 25.2515 16.9405C25.0592 17.1328 24.9858 17.168 24.7772 17.168C24.6414 17.168 24.4573 17.1248 24.3681 17.0721C24.1429 16.9392 24.0142 16.6963 24.0142 16.405C24.0142 16.1963 24.0494 16.1229 24.2416 15.9306C24.4982 15.6741 24.7596 15.6311 25.0744 15.7939Z" fill="#00ACE2"/>
</svg>
