<svg width="36" height="36" viewBox="0 0 36 36" fill="none" xmlns="http://www.w3.org/2000/svg">
<path fill-rule="evenodd" clip-rule="evenodd" d="M7.5 6C6.67157 6 6 6.67157 6 7.5C6 8.32843 6.67157 9 7.5 9H10.5V25.5C10.5 26.3284 11.1716 27 12 27C12 27.8284 12.6716 28.5 13.5 28.5H27C27.8284 28.5 28.5 27.8284 28.5 27C28.5 26.1716 27.8284 25.5 27 25.5H13.5V7.5C13.5 6.67157 12.8284 6 12 6H7.5Z" fill="#FFB700"/>
<rect x="16.5" y="10.5" width="12" height="12" rx="1.5" fill="#FFB700"/>
<path fill-rule="evenodd" clip-rule="evenodd" d="M12 31.5C14.4853 31.5 16.5 29.4853 16.5 27C16.5 24.5147 14.4853 22.5 12 22.5C9.51472 22.5 7.5 24.5147 7.5 27C7.5 29.4853 9.51472 31.5 12 31.5Z" fill="#FFB700"/>
</svg>
