<svg width="16" height="20" viewBox="0 0 16 20" fill="none" xmlns="http://www.w3.org/2000/svg">
<path fill-rule="evenodd" clip-rule="evenodd" d="M8 19.5556C8 19.5556 16 14.2222 16 8C16 5.87827 15.1571 3.84344 13.6569 2.34315C12.1566 0.842855 10.1217 0 8 0C5.87827 0 3.84344 0.842855 2.34315 2.34315C0.842855 3.84344 0 5.87827 0 8C0 14.2222 8 19.5556 8 19.5556ZM11.5556 8C11.5556 9.96368 9.96368 11.5556 8 11.5556C6.03632 11.5556 4.44444 9.96368 4.44444 8C4.44444 6.03632 6.03632 4.44444 8 4.44444C9.96368 4.44444 11.5556 6.03632 11.5556 8Z" fill="#70708C"/>
</svg>
