<svg width="17" height="22" viewBox="0 0 17 22" fill="none" xmlns="http://www.w3.org/2000/svg">
<path fill-rule="evenodd" clip-rule="evenodd" d="M5.76046 0.0681711C5.68525 0.121229 5.67213 0.193592 5.65913 0.627127L5.64418 1.12516L3.18924 1.12541C1.56342 1.12554 0.67417 1.14141 0.556283 1.17232C0.331634 1.23123 0.101199 1.44135 0.0443247 1.63922C0.0202043 1.72302 0.000400377 2.2898 0.000266869 2.89877L0 4.00593H8.5H17L16.9997 2.89877C16.9996 2.2898 16.9798 1.72302 16.9557 1.63922C16.8988 1.44135 16.6684 1.23123 16.4437 1.17232C16.3258 1.14141 15.4366 1.12554 13.8108 1.12541L11.3558 1.12516L11.3409 0.627127C11.3279 0.193592 11.3147 0.121229 11.2395 0.0681711C11.1107 -0.0227237 5.8893 -0.0227237 5.76046 0.0681711ZM1.24607 5.46261C1.24607 5.77515 2.00591 20.9994 2.02736 21.1165C2.0857 21.4352 2.33621 21.7483 2.67016 21.9199C2.81973 21.9968 3.05159 22 8.5 22C13.9484 22 14.1803 21.9968 14.3298 21.9199C14.6527 21.754 14.9035 21.4484 14.9697 21.1401C14.9915 21.039 15.7539 5.79824 15.7539 5.46489C15.7539 5.38315 15.6385 5.38182 8.5 5.38182C1.43138 5.38182 1.24607 5.38388 1.24607 5.46261ZM5.85663 8.86188C6.08453 9.00415 6.07367 8.78491 6.08782 13.5297C6.09508 15.9654 6.08836 18.0437 6.07287 18.1481C6.05409 18.2746 6.00269 18.3784 5.91845 18.4598C5.79331 18.5807 5.78739 18.5818 5.24361 18.5808C4.65858 18.5798 4.56917 18.5522 4.45547 18.3374C4.41978 18.27 4.40576 16.9622 4.40576 13.7023C4.40576 8.68413 4.38929 8.96911 4.68679 8.83913C4.87023 8.75894 5.71819 8.77545 5.85663 8.86188ZM9.03403 8.8347C9.13995 8.86962 9.2148 8.9342 9.26794 9.03653C9.34119 9.17764 9.34537 9.47191 9.33469 13.7589L9.3233 18.3308L9.17795 18.4563C9.03532 18.5794 9.02313 18.5818 8.52363 18.5818C8.23779 18.5818 7.96592 18.5603 7.90344 18.5328C7.64435 18.4188 7.65445 18.6146 7.65454 13.6952C7.65458 9.48933 7.65979 9.17691 7.73242 9.03653C7.83291 8.8421 8.01096 8.78341 8.5 8.78341C8.70805 8.78341 8.94836 8.8065 9.03403 8.8347ZM12.3035 8.83965C12.612 8.96421 12.5942 8.66689 12.5942 13.7023C12.5942 16.9622 12.5802 18.27 12.5445 18.3374C12.4312 18.5515 12.3406 18.5798 11.7658 18.5808C11.1486 18.5819 11.0321 18.5342 10.9494 18.2466C10.8994 18.0726 10.8816 9.40901 10.9308 9.1715C10.963 9.01615 11.1344 8.8347 11.2737 8.80847C11.5177 8.76255 12.1607 8.78203 12.3035 8.83965Z" fill="#FF6533"/>
</svg>
